<svg viewBox="0 0 64 64"
    xmlns="http://www.w3.org/2000/svg"
    xmlns:xlink="http://www.w3.org/1999/xlink">
    <defs>
        <circle id="a" cx="24" cy="24" r="24"/>
        <circle id="c" cx="13" cy="13" r="13"/>
    </defs>
    <g fill="none" fill-rule="evenodd">
        <g transform="translate(4 3)">
            <mask id="b" fill="#fff">
                <use xlink:href="#a"/>
            </mask>
            <use fill="#80D25B" xlink:href="#a"/>
            <path fill="#22BA8E" d="M36.666 17.005s-5.828-2.378-7.564-1.189c-1.736 1.19-.808 6.805-.808 6.805S25.706 26.328 27 28.279c1.294 1.95 4.887 1.28 6.906 3 2.018 1.72 1.18 4.807 1.18 4.807l-.489 3.605s5.408-2.424 6.966-5.914c1.558-3.491 1.053-8.964 1.053-8.964l3.156-2.862 2.776-9-9.74-3.15L37.735 5 30.77 6.974l-.629 5.236 5.35 1.771 1.175 3.024zM-1.81 20.04S.16 18.784.422 18.764c2.017-.153 9.046.276 10.884-2.389 2.078-3.011 3.81-7 3.81-7l-.07-3.068L4.184 3.641l-5.995 16.4z" mask="url(#b)"/>
        </g>
        <path fill="#22BA8E" d="m17.371 45.075.83-9.174-6.673-5.109s-.385-4.088 4.459-4.666c4.844-.578 7.828 2.418 7.828 2.418s1.923 2.976 1.206 4.998c-.717 2.022-2.573 5.049-2.573 5.049s-.147 3.44-1.405 5.045c-1.257 1.606-3.672 1.439-3.672 1.439Z"/>
        <path fill="#BD7575" d="M38 41.122 40.122 39l19.092 19.092-2.122 2.122z"/>
        <g transform="translate(23 23)">
            <mask id="d" fill="#fff">
                <use xlink:href="#c"/>
            </mask>
            <use fill="#E3F4FF" stroke="#B4DFFB" stroke-width="2" xlink:href="#c"/>
            <path fill="#B5DFFB" mask="url(#d)" transform="rotate(30 8.982 11.021)" d="M6.982-7.479h4v37h-4z"/>
        </g>
    </g>
</svg>