<svg viewBox="0 0 24 24" fill="none" xmlns="http://www.w3.org/2000/svg"><path d="M12 7a5 5 0 0 0-3.573 8.497c.343.351.626.77.722 1.251l.53 2.644A2 2 0 0 0 11.638 21h.722a2 2 0 0 0 1.96-1.608l.53-2.644c.096-.482.379-.9.722-1.25A5 5 0 0 0 12 7Z" stroke="#fff" stroke-width="1.44"/><path d="M12 4V3M18 6l1-1M20 12h1M4 12H3M5 5l1 1M10 17h4" stroke="#fff" stroke-width="1.44" stroke-linecap="round" stroke-linejoin="round"/><path opacity=".1" d="M7 12a5 5 0 1 1 8.573 3.497c-.343.351-.626.77-.722 1.251L14.8 17H9.2l-.05-.252c-.097-.482-.38-.9-.723-1.25A4.984 4.984 0 0 1 7 12Z" fill="#fff"/></svg>