<svg viewBox="0 0 120 120" id="Layer_1" version="1.1" xml:space="preserve" xmlns="http://www.w3.org/2000/svg" fill="#000"><g id="SVGRepo_iconCarrier"><style>.st0{fill:#ffc54d}.st1{fill:#f46262}</style><path class="st0" d="M84.5 70c-1.2 0-2.2.9-2.4 2l-14.3-2-6.6-13.4c.7-.4 1.2-1.2 1.2-2.1 0-1.3-1.1-2.4-2.4-2.4s-2.4 1.1-2.4 2.4c0 1 .6 1.9 1.5 2.2L52.6 70l-14.7 2.1c-.2-1.2-1.2-2.1-2.4-2.1-1.3 0-2.4 1.1-2.4 2.4 0 1.3 1.1 2.4 2.4 2.4.7 0 1.3-.3 1.7-.7l10.6 10.3L45.3 99h-.4c-1.3 0-2.4 1.1-2.4 2.4 0 1.3 1.1 2.4 2.4 2.4 1.3 0 2.4-1.1 2.4-2.4 0-.4-.1-.8-.3-1.2l13.1-6.9 13.1 6.9c-.2.3-.3.7-.3 1.1 0 1.3 1.1 2.4 2.4 2.4 1.3 0 2.4-1.1 2.4-2.4 0-1.3-1.1-2.4-2.4-2.4h-.4l-2.5-14.6 10.6-10c.4.3.9.5 1.5.5 1.3 0 2.4-1.1 2.4-2.4 0-1.3-1.1-2.4-2.4-2.4z"/><path class="st1" d="M76.2 54.3H44c-2.5 0-4.5-2-4.5-4.5v-5.3h41.1v5.3c0 2.5-2 4.5-4.4 4.5zM39.5 16.1h41.1v27.5H39.5z"/><path style="fill:#ffe8a2" d="M51.5 16.1h17.2v29.8H51.5z"/><path class="st0" d="M82.9 45.9H37.1c-.7 0-1.2-.5-1.2-1.2v-.3c0-.7.5-1.2 1.2-1.2H83c.7 0 1.2.5 1.2 1.2v.3c-.1.6-.6 1.2-1.3 1.2z"/></g></svg>