<svg viewBox="0 0 120 120" id="Layer_1" version="1.1" xml:space="preserve"
    xmlns="http://www.w3.org/2000/svg" fill="#000">
    <g id="SVGRepo_iconCarrier">
        <style>.st0{fill:#ffc54d}.st2{fill:#f46262}</style>
        <circle class="st0" cx="60" cy="83.7" r="23.3"/>
        <circle cx="60" cy="83.7" r="18.7" style="fill:#edb24a"/>
        <path class="st0" d="M60 54.4c-2.2 0-4 1.8-4 4s1.8 4 4 4 4-1.8 4-4-1.8-4-4-4zm0 6.7c-1.5 0-2.6-1.2-2.6-2.6s1.2-2.6 2.6-2.6 2.6 1.2 2.6 2.6-1.1 2.6-2.6 2.6z"/>
        <path d="M82.2 15.7v31.2c0 .9-.6 1.8-1.6 2.3l-11.9 5.6-7 3.2c-1 .5-2.3.5-3.3 0l-6.9-3.3-11.9-5.6c-1-.5-1.6-1.4-1.6-2.3V15.7c0-1.5 1.5-2.7 3.3-2.7H79c1.7 0 3.2 1.2 3.2 2.7z" style="fill:#5195ff"/>
        <path d="M68.6 13v41.8L61.7 58c-1 .5-2.3.5-3.3 0l-6.9-3.3V13h17.1z" style="fill:#f46262"/>
        <path class="st2" d="m60.7 74.7 2.5 4.9c.1.2.4.4.6.5l5.4.8c.6.1.9.9.5 1.3l-3.9 3.9c-.2.2-.3.5-.2.7l.9 5.4c.1.6-.6 1.2-1.2.8l-4.9-2.6c-.2-.1-.5-.1-.8 0L54.7 93c-.6.3-1.3-.2-1.2-.8l.9-5.4c.1-.2-.1-.5-.2-.7l-3.9-3.9c-.5-.5-.2-1.3.5-1.3l5.4-.8c.2-.1.5-.2.6-.5l2.5-4.9c.3-.6 1.1-.6 1.4 0z"/>
    </g>
</svg>