<svg viewBox="0 0 64 64"
    xmlns="http://www.w3.org/2000/svg"
    xmlns:xlink="http://www.w3.org/1999/xlink">
    <defs>
        <circle id="a" cx="26.811" cy="27" r="26.5"/>
    </defs>
    <g fill="none" fill-rule="evenodd">
        <g transform="translate(7 3)">
            <mask id="b" fill="#fff">
                <use xlink:href="#a"/>
            </mask>
            <use fill="#80D25B" xlink:href="#a"/>
            <path fill="#22BA8E" d="M42.477 20.005s-5.828-2.378-7.564-1.189c-1.736 1.19-.809 6.805-.809 6.805s-2.587 3.707-1.293 5.658c1.293 1.95 4.887 1.28 6.905 3 2.02 1.72 1.18 4.807 1.18 4.807l-.488 3.605s5.408-2.424 6.966-5.914c1.558-3.491 1.053-8.964 1.053-8.964l3.156-2.862 2.776-9-9.74-3.15L43.546 8l-6.965 1.974-.63 5.236 5.35 1.771 1.176 3.024zM-1 23.04s1.97-1.256 2.233-1.276c2.017-.153 9.046.276 10.884-2.389 2.077-3.011 3.81-7 3.81-7l-.07-3.068L4.994 6.641-1 23.041zM16.076 48.1l.92-10.163-7.393-5.66s-.427-4.529 4.94-5.169c5.366-.64 8.672 2.68 8.672 2.68s2.13 3.296 1.336 5.536c-.794 2.24-2.85 5.593-2.85 5.593s-.163 3.81-1.556 5.59c-1.394 1.779-4.069 1.594-4.069 1.594z" mask="url(#b)"/>
        </g>
        <circle cx="51" cy="46" r="14" fill="#FFF"/>
        <path fill="#FFAF40" d="M56.473 36h-6.127L45 47.021h5.346L46.595 57l11.049-12.99h-5.961z"/>
    </g>
</svg>