<svg height="200" width="200"
    xmlns="http://www.w3.org/2000/svg" viewBox="0 0 512.008 512.008" xml:space="preserve">
    <path style="fill:#e3c129" d="M273.656 427.5H25.075C11.226 427.5 0 416.274 0 402.425v-36.738c0-13.849 11.226-25.075 25.075-25.075h248.58c13.849 0 25.075 11.226 25.075 25.075v36.738c0 13.849-11.226 25.075-25.074 25.075z"/>
    <path style="fill:#d6b41a" d="M273.656 402.915H25.075C11.226 402.915 0 391.689 0 377.84v24.585c0 13.848 11.226 25.074 25.075 25.074h248.58c13.848 0 25.075-11.226 25.075-25.074V377.84c0 13.849-11.226 25.075-25.074 25.075z"/>
    <path style="fill:#d6b41a" d="M273.656 340.611H149.365v86.888h124.291c13.848 0 25.075-11.226 25.075-25.074v-36.738c-.001-13.85-11.227-25.076-25.075-25.076z"/>
    <path style="fill:#fae246" d="M301.593 341.454H53.012c-13.849 0-25.075-11.226-25.075-25.075V279.64c0-13.848 11.226-25.075 25.075-25.075h248.58c13.848 0 25.075 11.226 25.075 25.075v36.738c0 13.85-11.226 25.076-25.074 25.076z"/>
    <path style="fill:#e3c129" d="M301.593 316.869H53.012c-13.849 0-25.075-11.226-25.075-25.075v24.585c0 13.848 11.226 25.074 25.075 25.074h248.58c13.848 0 25.075-11.226 25.075-25.074v-24.585c0 13.849-11.226 25.075-25.074 25.075z"/>
    <path style="fill:#e3c129" d="M301.593 254.565H177.302v86.888h124.291c13.848 0 25.075-11.226 25.075-25.074V279.64c-.001-13.849-11.227-25.075-25.075-25.075z"/>
    <path style="fill:#e3c129" d="M273.656 255.408H25.075C11.226 255.408 0 244.182 0 230.333v-36.738c0-13.848 11.226-25.075 25.075-25.075h248.58c13.849 0 25.075 11.226 25.075 25.075v36.738c0 13.849-11.226 25.075-25.074 25.075z"/>
    <path style="fill:#d6b41a" d="M273.656 230.823H25.075C11.226 230.823 0 219.597 0 205.748v24.585c0 13.848 11.226 25.074 25.075 25.074h248.58c13.848 0 25.075-11.226 25.075-25.074v-24.585c0 13.849-11.226 25.075-25.074 25.075z"/>
    <path style="fill:#d6b41a" d="M273.656 168.519H149.365v86.888h124.291c13.848 0 25.075-11.226 25.075-25.074v-36.738c-.001-13.85-11.227-25.076-25.075-25.076z"/>
    <path style="fill:#fae246" d="M301.593 168.64H53.012c-13.849 0-25.075-11.226-25.075-25.075v-36.738c0-13.848 11.226-25.075 25.075-25.075h248.58c13.848 0 25.075 11.226 25.075 25.075v36.738c0 13.849-11.226 25.075-25.074 25.075z"/>
    <path style="fill:#e3c129" d="M301.593 144.055H53.012c-13.849 0-25.075-11.226-25.075-25.075v24.585c0 13.848 11.226 25.074 25.075 25.074h248.58c13.848 0 25.075-11.226 25.075-25.074V118.98c0 13.849-11.226 25.075-25.074 25.075z"/>
    <path style="fill:#e3c129" d="M301.593 81.751H177.302v86.888h124.291c13.848 0 25.075-11.226 25.075-25.074v-36.738c-.001-13.85-11.227-25.076-25.075-25.076z"/>
    <circle style="fill:#fad52d" cx="362.533" cy="280.782" r="149.474"/>
    <path style="fill:#e3c129" d="M362.53 131.316v298.941c82.551 0 149.47-66.919 149.47-149.47s-66.919-149.471-149.47-149.471z"/>
    <circle style="fill:#fae246" cx="362.533" cy="280.782" r="117.783"/>
    <path style="fill:#d6b41a" d="M357.014 345.848c-23.226-.773-42.194-12.775-42.194-25.162 0-6.581 5.805-16.258 13.161-16.258 8.129 0 14.709 11.42 29.032 13.936v-31.355c-17.807-6.775-38.711-15.097-38.711-39.872 0-24.581 18.194-36.389 38.711-39.291v-5.42c0-2.71 3.097-5.226 7.355-5.226 3.677 0 7.354 2.517 7.354 5.226v4.839c12.001.387 34.646 3.483 34.646 16.838 0 5.226-3.484 15.87-12.001 15.87-6.388 0-10.064-6.193-22.646-7.161v28.259c17.614 6.581 38.13 15.677 38.13 41.806 0 24.001-15.484 38.517-38.13 42.195v5.612c0 2.71-3.678 5.226-7.354 5.226-4.259 0-7.355-2.517-7.355-5.226v-4.836h.002zm1.936-89.42v-23.032c-8.711 1.742-12.387 6.194-12.387 10.838-.001 5.613 5.031 9.096 12.387 12.194zm10.838 35.806v25.937c6.581-1.549 11.806-5.226 11.806-12.194.001-6.387-4.837-10.452-11.806-13.743z"/>
</svg>