<svg xmlns="http://www.w3.org/2000/svg" viewBox="0 0 512 512" xml:space="preserve">
    <path style="fill:#7a7a77" d="M119.211 443.65h106.533v10.429H119.211zM222.954 473.216l-2.69 2.101-13.604 10.615h-68.281l-13.141-10.615-2.597-2.101zM119.211 414h106.533v10.497H119.211z"/>
    <path style="fill:#646363" d="M225.744 405.821v10.019H119.211v-10.019h106.533z"/>
    <path style="fill:#7a7a77" d="M119.211 385.715h106.533v10.429H119.211z"/>
    <path style="fill:#646363" d="M225.744 377.535v10.02H119.211v-10.02h106.533zM225.744 435.335v10.019H119.211v-10.019h106.533zM222.954 473.216l-2.69 2.101h-95.026l-2.597-2.101z"/>
    <path style="fill:#e7e2e0" d="M239.512 402.209v4.499c0 4.021-4.499 7.293-10.02 7.293h-114.03c-5.453 0-9.951-3.272-9.951-7.293v-4.499c0-4.021 4.499-7.293 9.951-7.293h114.031c5.52 0 10.019 3.272 10.019 7.293zM239.512 431.79v4.498c0 4.022-4.499 7.362-10.02 7.362h-114.03c-5.453 0-9.951-3.34-9.951-7.362v-4.498c0-4.022 4.499-7.293 9.951-7.293h114.031c5.52 0 10.019 3.271 10.019 7.293zM239.512 461.371v4.567c0 4.021-4.499 7.293-10.02 7.293h-114.03c-5.453 0-9.951-3.272-9.951-7.293v-4.567c0-.477.068-1.023.205-1.5.954-3.272 4.976-5.793 9.747-5.793h114.031c5.519.001 10.018 3.272 10.018 7.293z"/>
    <path style="fill:#867063" d="M204.395 484.045h-69.732c0 15.44 17.073 27.955 38.134 27.955s38.134-12.516 38.134-27.955h-6.536z"/>
    <path style="fill:#efe7bd" d="M342.978 171.489c0 47.371-19.153 90.243-50.233 121.323-31.012 31.013-49.893 41.305-52.619 91.13H102.854c-2.385-43.146-16.835-56.641-40.759-79.542-3.749-3.612-7.702-7.429-11.86-11.588C19.153 261.732 0 218.861 0 171.489S19.153 81.246 50.234 50.234C81.246 19.221 124.118 0 171.489 0c38.033 0 73.204 12.406 101.626 33.398 6.952 5.112 13.495 10.769 19.63 16.836 2.113 2.044 4.158 4.225 6.134 6.407 3.817 4.294 7.498 8.793 10.906 13.427 20.925 28.423 33.193 63.457 33.193 101.421z"/>
    <path style="opacity:.2;fill:#fff" d="M303.923 62.571 61.957 304.537c-3.681-3.748-7.634-7.634-11.723-11.724C19.153 261.732 0 218.861 0 171.489S19.153 81.246 50.234 50.234C81.246 19.221 124.118 0 171.489 0c38.033 0 73.204 12.406 101.626 33.398 6.952 5.112 13.495 10.769 19.63 16.836 2.113 2.044 4.158 4.225 6.134 6.407 1.704 1.977 3.408 3.953 5.044 5.93z"/>
    <ellipse transform="rotate(-43.639 83.707 72.152)" style="opacity:.2;fill:#fff" cx="83.704" cy="72.15" rx="45.783" ry="25.55"/>
</svg>