<svg height="200" width="200"
    xmlns="http://www.w3.org/2000/svg" viewBox="0 0 511.999 511.999" xml:space="preserve">
    <path style="fill:#f53000" d="M236.824 22.059a22.602 22.602 0 0 1 38.35 0l77.54 124.256 142.136 35.348a22.604 22.604 0 0 1 11.851 36.474l-94.214 112.142 10.305 146.102a22.602 22.602 0 0 1-31.026 22.541L256 443.974l-135.767 54.948a22.604 22.604 0 0 1-31.026-22.541l10.305-146.102L5.297 218.138a22.605 22.605 0 0 1 11.851-36.474l142.136-35.348 77.54-124.257z"/>
    <path style="fill:#bf2717" d="M510.893 196.613a22.602 22.602 0 0 0-16.042-14.95l-142.136-35.348-77.54-124.255A22.6 22.6 0 0 0 256 11.424v432.554l135.767 54.948a22.602 22.602 0 0 0 31.026-22.541l-10.305-146.102 94.214-112.142a22.613 22.613 0 0 0 4.191-21.528z"/>
</svg>