<svg viewBox="0 0 1024 1024" class="icon"
    xmlns="http://www.w3.org/2000/svg">
    <path d="M993.763 493.538v35c0 13.331-6.04 26.664-18.135 37.137-140.149 121.422-280.35 242.795-420.49 364.219-11.813 10.237-25.813 15.501-42.454 15.501v-35c16.644 0 30.641-5.264 42.454-15.501C695.28 773.47 835.474 652.092 975.628 530.677c12.095-10.475 18.135-23.803 18.135-37.139z" fill="#E2AC47"/>
    <path d="M30.239 528.367v-35c0 14.707 6.701 29.313 19.037 40.019 138.449 120.064 277.049 239.996 415.562 360.02 13.002 11.26 28.74 16.466 47.853 16.994v35c-19.108-.528-34.851-5.734-47.853-16.994C326.325 808.382 187.725 688.45 49.276 568.386c-12.337-10.705-19.037-25.312-19.037-40.019z" fill="#E2AC47"/>
    <path d="M510.786 76.601c16.263 0 32.546 5.362 44.946 16.097 139.949 121.188 279.9 242.376 419.818 363.586 24.241 20.995 24.295 53.413.079 74.396C835.48 652.101 695.28 773.478 555.141 894.898c-11.814 10.238-25.813 15.502-42.451 15.502-19.109-.528-34.853-5.734-47.854-16.994C326.324 773.382 187.724 653.45 49.275 533.386c-19.581-16.987-24.96-43.81-11.895-65.251 3.919-6.438 8.669-11.829 14.465-16.849C189.954 331.734 328.024 212.152 466.107 92.567c12.296-10.639 28.478-15.966 44.679-15.966z" fill="#F4DF4B"/>
    <path d="M411.821 590.017v16.801c0-3.938-1.372-6.845-4.813-9.416-12.549-9.394-25.189-18.726-37.428-28.422-31.681-25.136-54.261-55.104-61.034-92.359-1.914-10.537-2.872-20.891-2.872-31.053v-16.801c0 10.16.958 20.517 2.872 31.054 6.773 37.256 29.354 67.225 61.034 92.357 12.238 9.698 24.879 19.03 37.428 28.423 3.441 2.573 4.813 5.476 4.813 9.416z" fill="#E7BA4A"/>
    <path d="M411.821 590.017v16.801c0-3.938-1.372-6.845-4.813-9.416-12.549-9.394-25.189-18.726-37.428-28.422-31.681-25.136-54.261-55.104-61.034-92.359-1.914-10.537-2.872-20.891-2.872-31.053v-16.801c0 10.16.958 20.517 2.872 31.054 6.773 37.256 29.354 67.225 61.034 92.357 12.238 9.698 24.879 19.03 37.428 28.423 3.441 2.573 4.813 5.476 4.813 9.416M718.325 432.268v16.801c0 49.485-24.574 91.829-71.955 127.182-9.898 7.378-19.737 14.804-29.698 22.113-3.33 2.446-4.586 5.272-4.586 9.061v-16.801c0-3.787 1.256-6.612 4.586-9.061 9.961-7.31 19.8-14.735 29.698-22.112 47.381-35.353 71.955-77.697 71.955-127.183z" fill="#E7BA4A"/>
    <path d="M718.325 432.268v16.801c0 2.958-.088 5.891-.263 8.799v-16.8c.175-2.909.263-5.842.263-8.8" fill="#E7BA4A"/>
    <path d="M718.063 441.067v16.8c-1.879 31.138-13.784 59.351-35.26 84.679v-16.8c21.474-25.329 33.381-53.541 35.26-84.679m-35.26 84.679v16.8c-10.06 11.867-22.221 23.102-36.433 33.703-9.898 7.379-19.737 14.805-29.698 22.114-.889.652-1.63 1.331-2.239 2.052v-16.8c.609-.722 1.352-1.398 2.239-2.052 9.961-7.311 19.8-14.736 29.698-22.114 14.212-10.602 26.373-21.836 36.433-33.703m-68.37 57.869v16.8c-1.479 1.746-2.18 3.718-2.319 6.072v-16.802c.139-2.352.838-4.324 2.319-6.07m-2.321 6.072v16.802c-.021.306-.027.616-.027.937v-16.801c0-.321.008-.632.027-.938M578.139 594.405v16.8c.005 3.288-1.577 3.333-7.57 3.333v-16.8c5.994 0 7.575-.045 7.57-3.333z" fill="#E7BA4A"/>
    <path d="M578.139 594.405v16.8c0 .178-.004.346-.014.506v-16.8c.01-.16.014-.328.014-.506m-.014.506v16.8c-.046.776-.213 1.34-.554 1.75v-16.8c.341-.41.508-.974.554-1.75" fill="#E7BA4A"/>
    <path d="M577.573 596.659v16.801a2.022 2.022 0 0 1-.448.391v-16.802a1.92 1.92 0 0 0 .448-.39m-.448.39v16.801a2.5 2.5 0 0 1-.526.258v-16.801c.196-.074.371-.158.526-.258m-.526.255v16.801a5.519 5.519 0 0 1-1.185.271v-16.801a5.443 5.443 0 0 0 1.185-.271m-1.185.273v16.8c-1.14.154-2.714.161-4.847.161v-16.8c2.132 0 3.704-.007 4.847-.161M445.973 610.859v-16.801c0 2.808 2.107 3.673 6.032 3.73v16.8c-3.924-.057-6.032-.922-6.032-3.729z" fill="#E7BA4A"/>
    <path d="M452.005 597.79v16.8c-3.925-.059-6.032-.924-6.032-3.729V594.06c0 2.806 2.108 3.671 6.032 3.73M495.048 592.455v16.801c.021 3.843-1.332 5.31-5.542 5.354v-16.8c4.211-.045 5.561-1.511 5.542-5.355z" fill="#E7BA4A"/>
    <path d="M495.048 592.455v16.801c.001.307-.005.595-.021.868v-16.801c.016-.274.023-.562.021-.868m-.022.868v16.801c-.079 1.326-.375 2.317-.973 3.025v-16.801c.599-.707.894-1.699.973-3.025" fill="#E7BA4A"/>
    <path d="M494.054 596.35v16.801a3.201 3.201 0 0 1-.727.634v-16.8c.28-.18.522-.391.727-.635" fill="#E7BA4A"/>
    <path d="M493.328 596.983v16.8a4.148 4.148 0 0 1-.793.388V597.37c.293-.107.558-.234.793-.387m-.794.387v16.801c-.409.148-.876.26-1.407.33v-16.8c.531-.071.998-.18 1.407-.331m-1.407.333v16.8c-.485.065-1.021.1-1.62.106v-16.801a12.878 12.878 0 0 0 1.62-.105" fill="#E7BA4A"/>
    <path d="M489.507 597.81v16.801a1235.93 1235.93 0 0 0-9.993-.11c-2.651-.017-5.305-.027-7.957-.027a1648.822 1648.822 0 0 0-19.549.118v-16.8c3.464-.039 6.925-.071 10.389-.092 2.73-.017 5.461-.025 9.16-.027 2.652 0 5.307.013 7.957.027 3.146.021 6.292.056 9.993.11z" fill="#E7BA4A"/>
    <path d="M489.507 597.81v16.801a1235.93 1235.93 0 0 0-9.993-.11c-2.651-.017-5.305-.027-7.957-.027a1648.822 1648.822 0 0 0-19.549.118v-16.8c3.464-.039 6.925-.071 10.389-.092 2.73-.017 5.461-.025 9.16-.027 2.652 0 5.307.013 7.957.027 3.146.021 6.292.056 9.993.11M568.534 597.741v16.8l-3.229-.006c-1.794-.004-3.589-.009-5.383-.015a2661.326 2661.326 0 0 0-9.408-.025c-3.161 0-5.238.006-7.315.02-2.636.02-5.27.049-7.904.101v-16.8a613.1 613.1 0 0 1 7.904-.101c2.076-.014 4.155-.02 7.315-.02 1.255 0 2.508.001 3.764.006 1.881.004 3.762.011 5.644.018 1.794.005 3.587.012 5.383.016l3.229.006z" fill="#E7BA4A"/>
    <path d="M568.534 597.741v16.8l-3.229-.006c-1.794-.004-3.589-.009-5.383-.015a2661.326 2661.326 0 0 0-9.408-.025c-3.161 0-5.238.006-7.315.02-2.636.02-5.27.049-7.904.101v-16.8a613.1 613.1 0 0 1 7.904-.101c2.076-.014 4.155-.02 7.315-.02 1.255 0 2.508.001 3.764.006 1.881.004 3.762.011 5.644.018 1.794.005 3.587.012 5.383.016l3.229.006" fill="#E7BA4A"/>
    <path d="M512.051 279.554c45.628.084 89.793 16.21 122.674 46.243a273.56 273.56 0 0 1 1.687 1.562c31.329 29.422 47.188 63.438 47.306 101.549.022 7.479-.562 15.117-1.754 22.907-4.405 28.754-20.573 52.744-44.243 72.796-13.708 11.621-28.456 22.33-42.94 33.25-10.621 8.019-17.152 17.313-17.143 29.344a35.3 35.3 0 0 0 .261 4.188c.146 1.228.241 2.216.242 3.015.005 3.288-1.577 3.333-7.57 3.333l-2.033.003-3.229-.006c-1.794-.004-3.589-.011-5.383-.016l-5.644-.018a944.518 944.518 0 0 0-3.764-.006c-3.16 0-5.238.006-7.315.021-2.636.019-5.271.047-7.904.1-5.038-.086-6.472-1.527-6.451-5.544.172-33.609.039-67.229.223-100.834.021-2.095 1.391-4.671 3.113-6.199 14.971-13.313 30.13-26.458 45.301-39.596 4.074-3.522 6.96-7.466 6.96-12.357 0-.603-.044-1.215-.137-1.846-1.393-8.202-8.636-13.209-16.555-13.367-3.643.049-6.638.764-9.444 2.245-.47.248-.932.514-1.388.804-4.173 2.646-7.642 6.136-11.371 9.298-11.208 9.471-22.377 18.969-33.565 28.449-15.413-13.164-30.645-26.466-46.338-39.344-3.578-2.942-8.547-5.343-13.315-6.285-2.116-.287-2.614-.312-3.104-.316-6.262.198-11.117 3.313-13.668 7.596-1.427 2.396-2.148 4.898-2.149 7.377-.001 3.867 1.75 7.681 5.324 10.964 7.55 6.932 15.4 13.618 23.165 20.376 9.998 8.702 20.148 17.292 29.967 26.145 1.691 1.527 2.964 4.129 2.975 6.241.181 33.609.07 67.226.21 100.833.021 3.843-1.332 5.309-5.541 5.354a1172.281 1172.281 0 0 0-17.95-.136c-3.698.001-6.431.011-9.159.027-3.464.021-6.927.052-10.392.092-4.35-.064-6.468-1.123-5.957-4.716.351-2.146.501-4.02.499-5.827-.015-14.725-10.189-25.1-22.946-34.622-14.254-10.644-28.689-21.212-41.854-32.824-28.188-24.869-41.703-54.226-41.761-87.038-.011-6.81.558-13.769 1.692-20.867 8.68-54.253 41.934-94.112 98.622-117.926a174.99 174.99 0 0 1 3.687-1.501c21.956-8.676 45.113-12.887 68.059-12.921z" fill="#F9F4BE"/>
    <path d="M535.298 597.817v16.8c-5.038-.086-6.471-1.526-6.45-5.544v-16.8c-.021 4.017 1.412 5.458 6.45 5.544z" fill="#E7BA4A"/>
    <path d="M535.298 597.817v16.8c-5.038-.086-6.471-1.526-6.45-5.544v-16.8c-.021 4.017 1.412 5.458 6.45 5.544M452.366 644.117c-1.833 0-3.138.033-4.067.204v-16.794c.93-.171 2.234-.205 4.067-.205v16.795z" fill="#E7BA4A"/>
    <path d="M452.366 627.317v16.8c-1.59 0-2.782.023-3.675.143v-16.8c.893-.118 2.086-.143 3.675-.143m-3.675.143v16.8c-.436.06-.799.141-1.104.249v-16.801a5.42 5.42 0 0 1 1.104-.248" fill="#E7BA4A"/>
    <path d="M446.483 645.386c-.38.672-.443 1.694-.443 3.242v-16.8c.001-2.862.217-3.922 2.237-4.303a.05.05 0 0 0 .021-.005v16.794c-.939.182-1.492.5-1.815 1.072V628.61v14.817c0 .588.149 1.39 0 1.959z" fill="#E7BA4A"/>
    <path d="M448.691 627.46v16.8c-.436.06-.799.141-1.104.249v-16.801a5.42 5.42 0 0 1 1.104-.248" fill="#E7BA4A"/>
    <path d="M447.588 627.707v16.8c-.188.07-.354.147-.5.242v-16.8c.145-.093.312-.173.5-.242m-.501.242v16.8a1.829 1.829 0 0 0-.416.363v-16.801c.117-.138.254-.258.416-.362" fill="#E7BA4A"/>
    <path d="M446.672 628.313v16.8c-.387.465-.542 1.14-.599 2.121v-16.801c.057-.983.212-1.656.599-2.12m-.599 2.121v16.801c-.024.413-.033.88-.033 1.407v-16.8c0-.529.008-.996.033-1.408" fill="#E7BA4A"/>
    <path d="M452.363 627.316c.565 0 1.181.002 1.85.007h2.411c6.156-.003 12.317-.006 18.472-.006 12.317 0 24.628.006 36.946.006h57.659c8.347 0 8.215 0 8.354 7.463.007.25.011.499.009.748-.022 7.692-2.821 14.311-9.422 19.723-5.392 4.436-11.69 6.81-19.132 6.81l-21.896.021c-7.136.007-14.268.014-21.399.014h-.932a8906.406 8906.406 0 0 1-30.788-.052c-15.933-.062-28.54-11.481-28.46-25.405l.004-.329.005-.392c.126-8.079-1.065-8.608 6.319-8.608z" fill="#F2EA90"/>
    <path d="M549.51 662.065v16.801c-7.298.005-14.599.014-21.896.021-7.136.007-14.268.015-21.399.015h-.498v-16.801h.498c7.133 0 14.264-.007 21.399-.014 7.297-.008 14.598-.016 21.896-.022z" fill="#E7BA4A"/>
    <path d="M549.51 662.065v16.801c-7.298.005-14.599.014-21.896.021-7.136.007-14.268.015-21.399.015h-.498v-16.801h.498c7.133 0 14.264-.007 21.399-.014 7.297-.008 14.598-.016 21.896-.022M505.716 662.102v16.801h-.433c-4.874 0-9.748-.003-14.621-.012-5.389-.009-10.779-.021-16.167-.041-15.933-.062-28.54-11.48-28.46-25.404v-16.801c-.08 13.924 12.529 25.346 28.46 25.405a8906.406 8906.406 0 0 0 30.788.052h.433z" fill="#E7BA4A"/>
    <path d="M505.716 662.102v16.801h-.433c-4.874 0-9.748-.003-14.621-.012-5.389-.009-10.779-.021-16.167-.041-15.933-.062-28.54-11.48-28.46-25.404v-16.801c-.08 13.924 12.529 25.346 28.46 25.405a8906.406 8906.406 0 0 0 30.788.052h.433" fill="#E7BA4A"/>
    <path d="M713.26 392.009c16.351 67.141-7.127 122.851-66.89 167.442-9.898 7.378-19.737 14.805-29.698 22.112-3.396 2.495-4.636 5.388-4.584 9.287.232 16.282.928 32.614-.084 48.853-1.823 29.636-25.611 50.588-59.762 51.819-12.646.449-25.327.671-38.006.671-14.946 0-29.892-.305-44.803-.89-32.961-1.292-57.587-24.896-57.708-53.548-.062-15.817-.161-31.627.091-47.436.07-4.096-1.279-7.081-4.809-9.718-12.549-9.393-25.189-18.725-37.428-28.422-31.681-25.135-54.261-55.102-61.034-92.358-9.324-51.349 4.022-98.381 40.521-139.681 36.561-41.387 85.479-64.329 145.484-69.356 2.107-.175 4.133-1.108 6.199-1.694h22.398c2.066.585 4.094 1.519 6.198 1.694 91.4 7.514 165.014 63.568 183.915 141.225zm-31.299 59.807c1.193-7.791 1.777-15.43 1.754-22.907-.115-38.111-15.978-72.129-47.305-101.551-.563-.525-1.12-1.043-1.688-1.562-32.879-30.034-77.045-46.159-122.028-46.243-23.596.032-46.742 4.244-68.704 12.914a185.191 185.191 0 0 0-3.686 1.499c-56.689 23.815-89.942 63.673-98.624 117.928-1.136 7.1-1.702 14.057-1.691 20.867.058 32.812 13.571 62.17 41.761 87.04 13.165 11.609 27.6 22.182 41.854 32.82 12.758 9.525 22.933 19.902 22.947 34.624a34.519 34.519 0 0 1-.468 5.629c-.542 3.794 1.575 4.852 5.258 4.915 4.133-.038 7.597-.071 11.062-.092a1324.852 1324.852 0 0 1 17.117.001c3.146.021 6.291.058 9.436.107 4.765-.044 6.117-1.51 6.097-5.352-.141-33.607-.03-67.225-.212-100.833-.01-2.112-1.28-4.714-2.974-6.241-9.816-8.852-19.97-17.44-29.97-26.144-7.762-6.759-15.614-13.446-23.164-20.378-3.574-3.281-5.327-7.095-5.324-10.962.001-2.479.725-4.981 2.147-7.377 2.553-4.281 7.41-7.396 13.026-7.586 1.133-.006 1.632.019 2.131.068 6.384 1.181 11.353 3.582 14.934 6.524 15.693 12.876 30.924 26.18 46.338 39.344 11.187-9.479 22.356-18.979 33.565-28.449 3.729-3.159 7.196-6.651 11.37-9.298.456-.29.919-.557 1.387-.803a19.405 19.405 0 0 1 8.729-2.248c8.637.159 15.879 5.167 17.212 12.988.148 1.011.195 1.627.195 2.227 0 4.891-2.886 8.836-6.961 12.357-15.17 13.139-30.331 26.283-45.3 39.596-1.721 1.528-3.095 4.105-3.114 6.198-.184 33.608-.051 67.227-.222 100.834-.021 4.018 1.412 5.459 5.574 5.545 3.511-.052 6.146-.081 8.78-.099 2.075-.015 4.153-.021 6.23-.021 2.339 0 3.59.003 4.847.006l5.641.018c1.795.005 3.589.012 5.384.018l2.155.001c1.752.003 2.429.001 3.107 0 5.995 0 7.577-.045 7.571-3.333-.002-.797-.096-1.787-.242-3.013a35.352 35.352 0 0 1-.261-4.188c-.012-12.031 6.52-21.326 17.142-29.342 14.485-10.922 29.232-21.632 42.939-33.252 23.674-20.051 39.844-44.04 44.248-72.794M568.643 655.257c6.602-5.412 9.398-12.027 9.42-19.723.004-.247 0-.498-.007-.748-.141-7.463-.01-7.463-8.355-7.463h-57.657c-12.315 0-24.632-.005-36.946-.005-6.157 0-12.315.002-18.472.005h-2.411c-.668-.003-1.284-.006-1.847-.006-7.387 0-6.199.528-6.321 8.604l-.005.395-.005.327c-.08 13.925 12.528 25.347 28.46 25.405 5.39.022 10.779.033 16.167.041 4.874.009 9.747.011 14.622.011h.931c7.134 0 14.265-.007 21.399-.014 7.299-.008 14.598-.016 21.896-.021 7.437 0 13.737-2.373 19.131-6.808" fill="#EFD350"/>
    <path d="M612.537 620.409v16.8c0 6.438-.134 12.872-.533 19.291-1.823 29.637-25.611 50.59-59.762 51.82-12.646.45-25.327.67-38.006.67-14.946 0-29.892-.305-44.803-.89-32.961-1.292-57.587-24.896-57.708-53.547-.031-8.026-.072-16.053-.072-24.076v-16.8c0 8.023.041 16.05.072 24.076.12 28.65 24.746 52.255 57.708 53.547 14.912.585 29.858.89 44.803.89 12.679 0 25.356-.22 38.006-.67 34.149-1.231 57.938-22.185 59.762-51.82.399-6.418.533-12.853.533-19.291z" fill="#E7BA4A"/>
    <path d="M612.537 620.409v16.8c0 6.259-.125 12.513-.499 18.752v-16.8c.374-6.238.499-12.493.499-18.752m-.5 18.752v16.8l-.033.54c-.732 11.958-5.046 22.502-12.172 30.907v-16.8c7.126-8.406 11.438-18.949 12.172-30.907l.033-.54m-12.206 31.447v16.8c-3.437 4.055-7.526 7.61-12.187 10.589v-16.8c4.661-2.979 8.752-6.535 12.187-10.589" fill="#E7BA4A"/>
    <path d="M587.646 681.195v16.8c-3.65 2.331-7.649 4.309-11.959 5.892v-16.8c4.309-1.583 8.308-3.561 11.959-5.892" fill="#E7BA4A"/>
    <path d="M575.688 687.087v16.8c-4.727 1.736-9.823 3-15.236 3.735v-16.8c5.412-.736 10.509-1.998 15.236-3.735m-15.238 3.735v16.8a83.425 83.425 0 0 1-8.208.698c-12.646.45-25.327.67-38.006.67-14.946 0-29.892-.305-44.803-.89-32.961-1.292-57.587-24.896-57.708-53.547-.031-8.026-.072-16.053-.072-24.076v-16.8c0 8.023.041 16.05.072 24.076.12 28.65 24.746 52.255 57.708 53.547 14.912.585 29.858.89 44.803.89 12.679 0 25.356-.22 38.006-.67a83.12 83.12 0 0 0 8.208-.698M614.405 724.054v16.802c0 1.104-.12 2.257-.364 3.448-1.259 6.155-6.157 10.38-13.314 11.461-.736.113-1.481.28-2.219.28-32.056.015-64.124.068-96.185.068-25.557 0-51.101-.034-76.656-.147-9.875-.043-16.197-6.415-16.197-14.379v-16.8c0 7.962 6.322 14.335 16.197 14.379 25.556.113 51.1.147 76.656.147 32.061 0 64.129-.055 96.185-.068.736 0 1.481-.167 2.219-.28 7.155-1.08 12.056-5.307 13.314-11.461.246-1.192.364-2.345.364-3.45z" fill="#E7BA4A"/>
    <path d="M614.405 724.054v16.802c0 .327-.011.663-.031.999v-16.801c.022-.338.031-.672.031-1m-.031 1v16.801c-.051.794-.16 1.611-.331 2.449-.479 2.332-1.479 4.391-2.929 6.103v-16.8c1.448-1.714 2.45-3.771 2.929-6.103.171-.839.28-1.656.331-2.45m-3.26 8.55v16.801a14.143 14.143 0 0 1-3.188 2.771v-16.8a14.076 14.076 0 0 0 3.188-2.772" fill="#E7BA4A"/>
    <path d="M607.928 736.375v16.8a16.89 16.89 0 0 1-3.22 1.585v-16.8a16.744 16.744 0 0 0 3.22-1.585m-3.22 1.585v16.8a20.63 20.63 0 0 1-3.979 1.004c-.425.065-.853.147-1.278.205v-16.801c.427-.057.854-.141 1.278-.205a20.395 20.395 0 0 0 3.979-1.003m-5.259 1.211v16.8a6.921 6.921 0 0 1-.94.074c-32.054.015-64.124.068-96.185.068-25.556 0-51.101-.034-76.655-.147-9.875-.043-16.197-6.415-16.197-14.379v-16.8c0 7.962 6.322 14.335 16.197 14.379 25.556.113 51.1.147 76.655.147 32.061 0 64.131-.055 96.185-.068.313-.002.628-.031.94-.074" fill="#E7BA4A"/>
    <path d="M560.361 709.575c11.692 0 23.385.019 35.071.075 13.318.063 20.746 7.411 18.609 17.854-1.26 6.153-6.158 10.378-13.315 11.46-.735.113-1.48.28-2.219.28-32.054.015-64.124.068-96.185.068-25.556 0-51.101-.034-76.655-.147-11.582-.051-18.275-8.808-15.615-18.628 1.766-6.469 7.712-10.642 16.45-10.789 8.414-.13 16.827-.151 25.244-.151 2.425 0 4.85.001 7.275.005a2838.127 2838.127 0 0 0 11.671 0c4.601-.009 9.201-.012 13.801-.012 9.197 0 18.396.012 27.59.012l7.509.003c6.045 0 12.088-.008 18.134-.015 7.544-.008 15.09-.015 22.635-.015z" fill="#EFD350"/>
</svg>